{"title":"The Dreamers (2003) BRRIP 1080P","uid":11811281,"size":6369587351,"categoryP":"video","categoryS":"hd___movies","magnet":"?xt=urn:btih:96a7097a7c059f27bd032c4ffd566ebf743f05e2&amp;dn=The+Dreamers+%282003%29+BRRIP+1080P&amp;tr=udp%3A%2F%2Ftracker.openbittorrent.com%3A80&amp;tr=udp%3A%2F%2Fopen.demonii.com%3A1337&amp;tr=udp%3A%2F%2Ftracker.coppersurfer.tk%3A6969&amp;tr=udp%3A%2F%2Fexodus.desync.com%3A6969","seeders":4,"leechers":1,"uploader":"jmanwf","files":5,"time":1428807129,"description":"Description\nStoryline\n\nParis, spring 1968. While most students take the lead in the May 'revolution', a French poet's twin son Theo and daughter Isabelle enjoy the good life in his grand Paris home. As film buffs they meet and 'adopt' modest, conservatively educated Californian student Matthew. With their parents away for a month, they drag him into an orgy of indulgence of all senses, losing all of his and the last of their innocence. A sexual threesome shakes their rapport, yet only the outside reality will break it up.\n\n\nFormat : MPEG-4\nFormat profile : Base Media / Version 2\nCodec ID : mp42\nFile size : 5.86 GiB\nDuration : 1h 54mn\nOverall bit rate : 7 320 Kbps\nWriting application : HandBrake 0.10.1 2015030800\n\nVideo\nID : 1\nFormat : AVC\nFormat/Info : Advanced Video Codec\nFormat profile : &lt;a class=&quot;__cf_email__&quot; href=&quot;/cdn-cgi/l/email-protection&quot; data-cfemail=&quot;6e230f07002e225a405e&quot;&gt;[email&amp;#160;protected]&lt;/a&gt;&lt;script cf-hash='f9e31' type=&quot;text/javascript&quot;&gt;\n/* &lt;![CDATA[ */!function(){try{var t=&quot;currentScript&quot;in document?document.currentScript:function(){for(var t=document.getElementsByTagName(&quot;script&quot;),e=t.length;e--;)if(t[e].getAttribute(&quot;cf-hash&quot;))return t[e]}();if(t&amp;&amp;t.previousSibling){var e,r,n,i,c=t.previousSibling,a=c.getAttribute(&quot;data-cfemail&quot;);if(a){for(e=&quot;&quot;,r=parseInt(a.substr(0,2),16),n=2;a.length-n;n+=2)i=parseInt(a.substr(n,2),16)^r,e+=String.fromCharCode(i);e=document.createTextNode(e),c.parentNode.replaceChild(e,c)}}}catch(u){}}();/* ]]&gt; */&lt;/script&gt;\nFormat settings, CABAC : Yes\nFormat settings, ReFrames : 4 frames\nCodec ID : avc1\nCodec ID/Info : Advanced Video Coding\nDuration : 1h 54mn\nBit rate : 6 000 Kbps\nWidth : 1 920 pixels\nHeight : 1 080 pixels\nDisplay aspect ratio : 16:9\nFrame rate mode : Variable\nFrame rate : 24.000 fps\nMinimum frame rate : 17.039 fps\nMaximum frame rate : 40.577 fps\nColor space : YUV\nChroma subsampling : 4:2:0\nBit depth : 8 bits\nScan type : Progressive\nBits/(Pixel*Frame) : 0.121\nStream size : 4.83 GiB (82%)\nWriting library : x264 core 142 r2479 dd79a61\n\nColor primaries : BT.709\nTransfer characteristics : BT.709\nMatrix coefficients : BT.709\nColor range : Limited\n\nAudio #1\nID : 2\nFormat : AC-3\nFormat/Info : Audio Coding 3\nMode extension : CM (complete main)\nFormat settings, Endianness : Big\nCodec ID : ac-3\nDuration : 1h 54mn\nBit rate mode : Constant\nBit rate : 640 Kbps\nChannel(s) : 6 channels\nChannel positions : Front: L C R, Side: L R, LFE\nSampling rate : 48.0 KHz\nBit depth : 16 bits\nCompression mode : Lossy\nStream size : 525 MiB (9%)\nTitle : Surround / Surround\nLanguage : English\n\nAudio #2\nID : 3\nFormat : AC-3\nFormat/Info : Audio Coding 3\nMode extension : CM (complete main)\nFormat settings, Endianness : Big\nCodec ID : ac-3\nDuration : 1h 54mn\nBit rate mode : Constant\nBit rate : 640 Kbps\nChannel(s) : 2 channels\nChannel positions : Front: L R\nSampling rate : 48.0 KHz\nBit depth : 16 bits\nCompression mode : Lossy\nStream size : 525 MiB (9%)\nTitle : Stereo / Stereo\nLanguage : English\n\n\n\n\n &lt;a href=&quot;\nhttp://www.imdb.com/title/tt0309987/&quot; rel=&quot;nofollow&quot; target=&quot;_NEW&quot;&gt;\nhttp://www.imdb.com/title/tt0309987/&lt;/a&gt;\n\n\n\n\n &lt;a href=&quot;\nhttp://s26.postimg.org/m9kypuhfd/image.jpg&quot; rel=&quot;nofollow&quot; target=&quot;_NEW&quot;&gt;\nhttp://s26.postimg.org/m9kypuhfd/image.jpg&lt;/a&gt;\n\n\n\n &lt;a href=&quot;\nhttp://s26.postimg.org/uqkh0rm49/image.jpg&quot; rel=&quot;nofollow&quot; target=&quot;_NEW&quot;&gt;\nhttp://s26.postimg.org/uqkh0rm49/image.jpg&lt;/a&gt;","torrent":{"xt":"urn:btih:96a7097a7c059f27bd032c4ffd566ebf743f05e2","amp;dn":"The+Dreamers+%282003%29+BRRIP+1080P","amp;tr":["udp%3A%2F%2Ftracker.openbittorrent.com%3A80","udp%3A%2F%2Fopen.demonii.com%3A1337","udp%3A%2F%2Ftracker.coppersurfer.tk%3A6969","udp%3A%2F%2Fexodus.desync.com%3A6969"],"infoHash":"96a7097a7c059f27bd032c4ffd566ebf743f05e2","infoHashBuffer":{"type":"Buffer","data":[150,167,9,122,124,5,159,39,189,3,44,79,253,86,110,191,116,63,5,226]},"announce":[],"urlList":[]}}